HIERARCHY
ROOT Hips
{
  OFFSET 0 0 0
  CHANNELS 6 Xposition Yposition Zposition Zrotation Yrotation Xrotation
  JOINT LeftThigh
  {
    OFFSET 8.409438 0 -5.917753
    CHANNELS 3 Zrotation Yrotation Xrotation
    JOINT LeftLeg
    {
      OFFSET 0 0 -42.358652
      CHANNELS 3 Zrotation Yrotation Xrotation
      JOINT LeftFoot
      {
        OFFSET 0 0 -39.357303
        CHANNELS 3 Zrotation Yrotation Xrotation
      }
    }
  }
  JOINT RightThigh
  {
    OFFSET -8.409438 0 -5.917753
    CHANNELS 3 Zrotation Yrotation Xrotation
    JOINT RightLeg
    {
      OFFSET 0 0 -42.358652
      CHANNELS 3 Zrotation Yrotation Xrotation
      JOINT RightFoot
      {
        OFFSET 0 0 -39.357303
        CHANNELS 3 Zrotation Yrotation Xrotation
      }
    }
  }
  JOINT SpineLow
  {
    OFFSET 0 0 4.719101
    CHANNELS 3 Zrotation Yrotation Xrotation
    JOINT SpineMid
    {
      OFFSET 0 0 12.899191
      CHANNELS 3 Zrotation Yrotation Xrotation
      JOINT Chest
      {
        OFFSET 0 0 12.899191
        CHANNELS 3 Zrotation Yrotation Xrotation
        JOINT LeftShoulder
        {
          OFFSET 7.550562 1.41573 9.438202
          CHANNELS 3 Zrotation Yrotation Xrotation
          JOINT LeftArm
          {
            OFFSET 9.155056 0 4.247191
            CHANNELS 3 Zrotation Yrotation Xrotation
            JOINT LeftForearm
            {
              OFFSET 0 0 25.771955
              CHANNELS 3 Zrotation Yrotation Xrotation
              JOINT LeftHand
              {
                OFFSET 0 0 25.197169
                CHANNELS 3 Zrotation Yrotation Xrotation
              }
            }
          }
        }
        JOINT RightShoulder
        {
          OFFSET -7.550562 1.41573 9.438202
          CHANNELS 3 Zrotation Yrotation Xrotation
          JOINT RightArm
          {
            OFFSET -9.155056 0 4.247191
            CHANNELS 3 Zrotation Yrotation Xrotation
            JOINT RightForearm
            {
              OFFSET 0 0 -25.771955
              CHANNELS 3 Zrotation Yrotation Xrotation
              JOINT RightHand
              {
                OFFSET 0 0 -25.197169
                CHANNELS 3 Zrotation Yrotation Xrotation
              }
            }
          }
        }
        JOINT Neck
        {
          OFFSET 0 0 15.101124
          CHANNELS 3 Zrotation Yrotation Xrotation
          JOINT Head
          {
            OFFSET 0 0 11.325843
            CHANNELS 3 Zrotation Yrotation Xrotation
            End Site
            {
              OFFSET 0 0 14.157303
            }
          }
        }
      }
    }
  }
}
MOTION
Frames: 14
Frame Time: 0.0
0.0  89.887642  0.0  86.09953  -37.413473  -162.788193  15.433637  -49.359843  -36.876001  0.118244  33.862793  42.401524  -5.45022  2.629673  7.464421  -24.860315  30.413184  -40.675436  5.667042  13.49862  21.039317  11.076935  4.017332  -0.457766  0.90369  4.361213  1.10653  2.697868  11.874198  3.22074  2.697868  11.874198  3.22074  4.233233  9.364944  14.182132  -159.211528  48.491954  -151.015647  -46.416804  -2.702872  93.550946  70.941171  20.049328  -4.687776  1.06041  -8.787152  11.736427  143.995958  30.977163  47.444959  -23.301963  19.765689  -81.633814  96.647089  15.582651  -1.599691  26.960177  17.128167  13.513394  19.689428  13.473919  9.302834  
0.0  89.887642  0.0  84.420954  -37.268064  -161.351982  18.428151  -49.17717  -41.869586  3.842688  36.59879  48.185925  -4.41581  2.289623  7.805443  -25.332131  30.77931  -41.094389  5.370715  13.421138  22.250066  11.024972  4.104537  -0.465163  0.94761  4.394734  1.232064  2.844201  11.957861  3.577176  2.844201  11.957862  3.577176  4.028038  8.90761  13.502744  -160.129962  49.138711  -150.6897  -45.237157  -3.105724  95.251403  70.786102  19.966853  -5.552173  1.215785  -9.0244  11.404358  144.196043  31.75529  47.525604  -24.137791  19.466634  -81.245049  96.684239  15.294832  -0.991818  26.095278  17.033322  13.217754  19.05719  13.368905  9.111207  
0.0  89.887642  0.0  82.687697  -37.044432  -160.085006  20.739883  -48.896109  -46.219388  8.123485  38.833066  54.467897  -3.434199  2.013705  8.031802  -25.037385  31.509111  -40.823334  4.519955  13.368549  23.329779  11.008405  4.308521  -0.33386  1.026575  4.452772  1.385786  3.094672  12.104364  4.019681  3.094672  12.104364  4.019681  3.785789  8.227222  12.960481  -161.022992  49.548794  -150.349916  -43.861172  -3.199886  96.850984  70.881094  20.157738  -6.376107  1.244299  -9.378603  10.996758  143.773548  32.519488  47.394155  -24.941564  19.496641  -81.065443  96.94064  15.116051  -0.498099  24.984317  16.840426  12.857823  18.2471  13.18283  8.88325  
0.0  89.887642  0.0  80.945521  -36.949621  -158.631052  23.549845  -48.653465  -50.884364  12.713984  40.852688  61.116339  -2.656777  1.714225  8.147768  -24.632737  31.807578  -40.220991  4.014227  13.406056  24.09218  10.554338  4.435549  -0.189542  1.113418  4.506409  1.521818  3.364046  12.238046  4.415099  3.364046  12.238045  4.415099  3.667047  7.382811  12.452241  -161.903658  49.542923  -149.881297  -42.340366  -3.050679  98.417097  71.264334  20.675523  -7.052993  1.34622  -9.814246  10.401816  142.787366  33.392171  47.070773  -25.421837  19.431751  -81.041863  96.919172  15.126711  -0.073084  23.775019  16.646953  12.453948  17.364422  12.993857  8.624426  
0.0  89.887642  0.0  79.129786  -36.9543  -157.007262  26.34886  -48.542687  -55.430954  17.571881  42.648221  67.833977  -1.91184  1.513151  8.187632  -24.786814  31.455166  -40.032925  4.073818  13.623154  24.978686  10.473781  4.686695  -0.02028  1.176621  4.537801  1.6368  3.56288  12.312819  4.746798  3.56288  12.312819  4.746797  3.931421  6.528644  11.972874  -162.953793  49.128034  -149.336726  -40.676329  -2.739117  99.932361  71.987365  21.391724  -7.581332  1.616892  -10.199692  9.70236  141.444198  34.413464  46.624651  -25.541344  19.03797  -81.073054  96.395308  15.347292  0.31895  22.657052  16.514299  12.092575  16.545933  12.855886  8.391177  
0.0  89.887642  0.0  77.301357  -37.067516  -155.283205  28.858459  -48.605677  -59.70343  23.018328  44.056276  74.713978  -1.323306  1.322866  8.140723  -25.768016  30.496432  -40.362792  4.401107  13.800323  25.759531  10.250423  4.829192  0.054481  1.226031  4.520307  1.711057  3.711721  12.256943  4.959859  3.711721  12.256943  4.959859  4.781916  5.83511  11.841682  -164.28719  48.409437  -148.554488  -39.005739  -2.328575  101.349826  72.988622  22.166437  -7.995571  1.980014  -10.383484  9.07924  140.027875  35.464489  46.125488  -25.285121  18.170851  -81.129668  95.581221  15.601603  0.785108  21.700785  16.45035  11.90684  15.840595  12.780668  8.281042  
0.0  89.887642  0.0  75.474449  -37.25406  -153.473567  31.13929  -48.906322  -63.998688  29.016527  45.180192  81.823146  -0.690779  1.262859  8.0131  -27.113353  29.33996  -40.91318  4.974853  13.891074  26.470913  10.138522  4.879046  0.089085  1.267928  4.447747  1.750796  3.828055  12.053131  5.071739  3.828055  12.053132  5.071739  5.99447  5.367167  11.876257  -166.043864  47.40751  -147.921523  -37.448939  -1.858126  102.773903  74.184546  22.956147  -8.242445  2.386962  -10.302776  8.532516  138.639103  36.42586  45.65366  -25.058122  16.955914  -81.154486  94.647005  16.041867  1.109851  20.86919  16.468118  11.890137  15.220788  12.775934  8.28988  
0.0  89.887642  0.0  73.583139  -37.276518  -151.721043  33.246147  -49.073489  -68.139396  35.296287  46.11944  89.095786  -0.164466  1.179296  7.810824  -28.279666  28.481461  -41.234575  5.273844  13.913742  27.044647  10.126462  4.914561  0.228261  1.37837  4.373623  1.797078  4.134195  11.83891  5.21363  4.134194  11.838909  5.213629  6.86563  4.858746  12.020891  -168.328041  46.152122  -147.735897  -36.101386  -1.395172  104.211901  75.330799  23.682025  -8.273332  2.33607  -10.274025  8.157879  137.345409  37.178403  45.321743  -24.982461  15.47394  -81.222269  94.01038  16.370139  1.459115  19.859025  16.357339  12.039987  14.467916  12.676605  8.433272  
0.0  89.887642  0.0  71.581588  -37.114369  -150.055607  35.413534  -48.717361  -72.083698  41.091601  47.036579  96.255035  0.40997  1.198077  7.519451  -29.284326  27.878636  -41.078007  5.549233  13.844887  27.382201  9.90249  4.972556  0.346298  1.520124  4.29525  1.841468  4.525406  11.610146  5.354662  4.525406  11.610146  5.354662  7.26752  4.559801  12.407072  -170.641565  44.790126  -147.82323  -34.937795  -1.005203  105.645044  76.109831  24.26547  -8.251833  2.098629  -10.296229  8.019722  135.79835  37.792381  44.959966  -25.006015  14.05338  -81.331117  93.629984  16.376656  1.433176  18.789904  16.116857  12.368128  13.670708  12.483883  8.716119  
0.0  89.887642  0.0  69.419998  -36.842036  -148.110288  37.095677  -48.218258  -75.642379  46.913962  47.624209  102.923373  1.118677  1.250243  7.25045  -29.992146  27.396626  -40.568767  5.379413  13.87828  27.462407  9.569227  5.044664  0.341621  1.630463  4.211152  1.843527  4.821533  11.371155  5.37194  4.821533  11.371155  5.37194  7.610641  4.268855  12.646597  -173.346059  43.149735  -148.431769  -33.886426  -0.72906  106.907472  75.888167  25.0364  -9.109343  1.934622  -10.299852  7.978303  134.074812  38.309041  44.635065  -25.2636  12.922786  -81.617944  93.760684  16.501459  1.892019  17.755994  15.802933  12.731232  12.901167  12.236838  9.026145  
0.0  89.887642  0.0  67.116095  -36.734106  -145.695583  38.582433  -47.872203  -79.095919  52.720303  47.828274  108.765588  1.999927  1.351618  7.063885  -30.518674  26.654835  -39.980554  4.786623  14.041725  27.291469  9.371163  5.11802  0.331649  1.710078  4.104511  1.803902  5.02352  11.076534  5.266213  5.02352  11.076534  5.266213  8.234079  4.145386  12.766891  -176.196147  41.391275  -148.585929  -32.379815  1.205475  110.77065  75.654861  29.147051  -11.049253  1.934571  -10.207425  7.762929  132.064887  38.775371  44.120001  -25.708701  12.14603  -81.994573  92.299491  17.787278  1.150271  16.711205  15.468272  12.924249  12.128295  11.968107  9.209225  
0.0  89.887642  0.0  64.667959  -36.590647  -143.0862  39.912136  -47.254643  -82.289202  57.90857  47.822244  113.894151  3.003254  1.503028  6.950653  -31.011665  25.935614  -39.308732  3.92169  14.200028  26.913201  9.209711  5.110125  0.306525  1.755374  4.008721  1.779487  5.134811  10.813327  5.197255  5.134811  10.813327  5.197255  9.083074  4.09825  12.747728  -179.096727  39.590039  -148.246069  -31.863569  3.285714  110.956751  75.176425  30.659063  -11.526513  2.105025  -9.958446  7.327662  129.697929  39.417241  43.304021  -25.95851  11.381227  -82.419413  90.099724  20.003876  -0.795578  15.634378  15.085753  12.889477  11.338266  11.656194  9.223565  
0.0  89.887642  0.0  61.923535  -36.219492  -140.458131  40.607269  -46.364518  -84.865233  61.955853  47.944824  118.012662  4.027744  2.05233  6.946469  -31.554054  25.42426  -38.335832  2.742521  14.236993  26.363293  9.07922  5.079794  0.281751  1.812063  3.907531  1.776739  5.280574  10.532752  5.18898  5.280574  10.532752  5.18898  9.76512  4.087345  12.70228  177.970596  38.059095  -147.79722  -31.490242  6.030149  110.529325  75.601409  31.787589  -11.573964  1.917249  -9.545952  7.055217  127.255414  39.812732  42.129107  -25.752984  10.167055  -82.824824  87.20622  22.986159  -5.104369  14.404354  14.583549  12.875206  10.436443  11.251846  9.259215  
0.0  89.887642  0.0  58.799038  -35.66636  -137.927804  40.651313  -45.310538  -86.875369  65.593826  47.580889  122.121663  4.625916  2.211176  6.652115  -31.891364  25.114615  -36.753056  1.519408  14.165086  25.726081  8.847091  5.102961  0.277427  1.89859  3.765562  1.82175  5.511763  10.134348  5.312163  5.511764  10.134348  5.312164  10.081176  4.124702  12.73184  174.921228  36.831201  -147.373444  -31.162125  7.525493  110.028477  75.982271  32.405061  -12.100085  1.298196  -9.012131  6.925492  124.822185  40.31278  41.173925  -24.888857  7.695024  -83.429268  85.423334  25.26388  -9.891763  12.980584  14.028264  12.921929  9.389227  10.804993  9.344107  
